HIERARCHY
ROOT Hips
{
  OFFSET 279.157 85.6768 304.565
  CHANNELS 6 Xposition Yposition Zposition Zrotation Xrotation Yrotation
  JOINT LeftUpLeg
  {
    OFFSET 8.64259 1.95398 -2.38835
    CHANNELS 3 Zrotation Xrotation Yrotation
    JOINT LeftLeg
    {
      OFFSET 43.7702 0 0
      CHANNELS 3 Zrotation Xrotation Yrotation
      JOINT LeftFoot
      {
        OFFSET 40.6238 0 0
        CHANNELS 3 Zrotation Xrotation Yrotation
        JOINT LeftToeBase
        {
          OFFSET 12.7242 0 0
          CHANNELS 3 Zrotation Xrotation Yrotation
          End Site
          {
            OFFSET 0 0 0
          }
        }
      }
    }
  }
  JOINT RightUpLeg
  {
    OFFSET -8.2249 1.95398 -2.59336
    CHANNELS 3 Zrotation Xrotation Yrotation
    JOINT RightLeg
    {
      OFFSET 43.5653 0 0
      CHANNELS 3 Zrotation Xrotation Yrotation
      JOINT RightFoot
      {
        OFFSET 40.6238 0 0
        CHANNELS 3 Zrotation Xrotation Yrotation
        JOINT RightToeBase
        {
          OFFSET 12.7242 0 0
          CHANNELS 3 Zrotation Xrotation Yrotation
          End Site
          {
            OFFSET 0 0 0
          }
        }
      }
    }
  }
  JOINT Spine
  {
    OFFSET 0.165834 0.87714 6.61349
    CHANNELS 3 Zrotation Xrotation Yrotation
    JOINT Spine1
    {
      OFFSET 7.38963 1.71661e-005 0
      CHANNELS 3 Zrotation Xrotation Yrotation
      JOINT Spine2
      {
        OFFSET 11.9445 1.14441e-005 0
        CHANNELS 3 Zrotation Xrotation Yrotation
        JOINT Spine3
        {
          OFFSET 14.7254 4.19617e-005 0
          CHANNELS 3 Zrotation Xrotation Yrotation
          JOINT Spine4
          {
            OFFSET 10.9679 0 0
            CHANNELS 3 Zrotation Xrotation Yrotation
            JOINT RightShoulder
            {
              OFFSET 2.46616 -1.6653 3.69651
              CHANNELS 3 Zrotation Xrotation Yrotation
              JOINT RightArm
              {
                OFFSET 13.0012 0 0
                CHANNELS 3 Zrotation Xrotation Yrotation
                JOINT RightForeArm
                {
                  OFFSET 28.7848 1.52588e-005 0
                  CHANNELS 3 Zrotation Xrotation Yrotation
                  JOINT RightHand
                  {
                    OFFSET 26.5688 1.52588e-005 0
                    CHANNELS 3 Zrotation Xrotation Yrotation
                    End Site
                    {
                      OFFSET 0 0 0
                    }
                  }
                }
              }
            }
            JOINT LeftShoulder
            {
              OFFSET 2.38034 -1.29275 -3.7523
              CHANNELS 3 Zrotation Xrotation Yrotation
              JOINT LeftArm
              {
                OFFSET 16.3182 6.10351e-005 0
                CHANNELS 3 Zrotation Xrotation Yrotation
                JOINT LeftForeArm
                {
                  OFFSET 27.0901 0 0
                  CHANNELS 3 Zrotation Xrotation Yrotation
                  JOINT LeftHand
                  {
                    OFFSET 24.5451 1.52588e-005 0
                    CHANNELS 3 Zrotation Xrotation Yrotation
                    End Site
                    {
                      OFFSET 0 0 0
                    }
                  }
                }
              }
            }
            JOINT Neck
            {
              OFFSET 5.0226 -0.0266342 0
              CHANNELS 3 Zrotation Xrotation Yrotation
              JOINT Head
              {
                OFFSET 6.69364 2.86102e-005 0
                CHANNELS 3 Zrotation Xrotation Yrotation
                End Site
                {
                  OFFSET 0 0 0
                }
              }
            }
          }
        }
      }
    }
  }
}
MOTION
Frames:	9
Frame Time:	0.0416667
-148.532 82.7998 -148.929 -67.0659 -68.2536 -67.0074 -171.696 55.8272 118.075 -64.1014 7.43525 -0.599134 80.3413 13.8525 0.58951 30.7197 -0.308684 6.34774 173.705 39.8975 70.4804 -62.1603 -19.2431 -4.51899 76.7458 -11.1858 1.18639 47.1175 -6.25727 -0.899812 0.570163 9.59178 -90.8293 7.69313 0.777748 -1.67729 -3.97872 0.703171 -1.7099 -26.5095 1.24585 -1.3661 -6.49686 1.24583 -1.36609 84.3513 -26.3114 -119.82 22.8432 -25.5565 -14.6585 -29.9218 -13.2561 -67.9268 -31.6208 2.83212 -23.6389 -90.8852 -48.7471 77.116 -5.81529 29.5422 -1.30889 25.6139 -12.0491 -89.1066 10.4984 -2.596 -26.3148 40.6292 2.33266 1.58505 -9.91221 1.26992 1.85785 
-143.813 83.7538 -144.175 -66.2537 -72.9995 -65.222 -171.143 53.9486 115.256 -61.8317 12.8376 -1.16516 76.0449 10.6183 -0.518312 34.1136 1.67376 6.69148 172.984 30.4225 68.2529 -53.4432 -17.8559 -6.21007 71.6266 -7.88083 1.71642 49.597 -7.3617 -4.11386 0.607918 9.42986 -90.7239 8.01743 0.896528 -1.48038 -3.65409 0.830515 -1.5184 -26.1873 1.29997 -1.14255 -6.17465 1.29996 -1.14256 84.6342 -26.0355 -119.416 27.4744 -23.294 -10.5992 -28.4195 -11.5135 -70.0035 -30.5083 3.10737 -24.7286 -89.8936 -44.0427 77.5407 3.91499 32.4201 -9.52729 23.1177 -13.9342 -90.9034 11.0106 -2.61777 -25.6411 37.249 -1.35865 -2.64809 -9.26114 -0.266661 3.22376 
-138.075 86.3773 -138.106 -58.3962 -77.8023 -54.2703 -170.681 52.0706 111.28 -63.121 14.2203 -1.43571 75.9289 10.418 -0.177526 28.0087 -1.62083 4.90117 172.083 17.3279 69.1151 -37.5396 -15.2209 -7.25205 57.523 -0.557294 3.04517 51.9563 -8.3517 -6.59229 0.491258 9.05226 -91.01 8.77187 0.531427 -2.03047 -2.90062 0.441569 -2.05188 -25.4262 1.11702 -1.77703 -5.41357 1.11701 -1.77703 85.415 -26.4684 -117.594 30.7694 -21.9553 -4.62124 -27.9733 -8.61955 -73.4376 -28.5762 3.59696 -27.5592 -89.0752 -39.0956 77.6566 11.3714 32.3188 -20.549 21.9457 -14.2207 -90.6189 10.7037 -2.55092 -25.5243 31.6945 -4.17182 -8.52307 -9.15131 -0.808087 5.98124 
-131.058 89.276 -131.086 -37.5097 -80.4864 -30.8678 -171.127 47.9981 106.852 -61.7338 12.7756 -0.380132 78.2675 12.0309 -0.980651 29.3647 -1.22752 6.79647 172.819 10.6771 71.5203 -32.055 -11.9081 -9.23638 54.9489 1.61362 -0.734941 24.8498 1.11715 0.000394837 0.136436 8.54126 -91.3494 9.77975 -0.338934 -2.64724 -1.89382 -0.455077 -2.62978 -24.4077 0.472039 -2.62679 -4.39501 0.472049 -2.62678 86.9314 -26.8812 -114.315 31.0212 -22.8394 0.260003 -29.8498 -5.09124 -77.6332 -25.6074 3.6908 -30.8988 -89.0547 -35.1485 76.6577 14.7628 30.7046 -26.2897 19.654 -14.6567 -91.7582 11.2488 -3.01099 -28.4747 22.8714 -4.53972 -15.2709 -8.45076 0.229556 9.55245 
-123.606 91.4633 -124.991 -40.4739 -81.5421 -31.9033 -170.19 40.8962 102.765 -60.4189 7.3515 -0.0764809 83.6138 14.8296 -3.34457 27.9924 -2.26089 7.53428 173.84 10.4576 74.1117 -38.2221 -17.255 -9.56778 60.1467 -1.15238 -3.82107 15.0291 3.4881 5.01685 0.215 8.50545 -91.6616 9.84653 -0.324739 -3.27056 -1.82845 -0.468305 -3.25315 -24.3314 0.672675 -3.21712 -4.31877 0.672672 -3.21714 90.3411 -24.9275 -108.131 33.2813 -25.5103 1.97579 -31.4662 -0.367978 -81.6853 -21.4467 2.93919 -31.3297 -88.9966 -31.3381 75.645 16.7755 26.4783 -28.1422 22.8691 -15.2067 -93.6234 14.1163 -3.45368 -27.2789 18.6168 -1.87695 -13.8837 -8.10723 1.82895 10.1592 
-115.667 93.376 -119.954 -59.9704 -79.3483 -51.3455 -167.615 33.1167 97.0299 -56.4495 1.58829 -1.87734 84.9698 16.3575 -1.65133 28.6003 -1.63567 6.45884 173.944 17.8141 75.6415 -47.7617 -16.941 -6.55418 61.8633 -1.93562 -3.49716 16.8083 2.74169 5.80562 0.273867 8.578 -91.7535 9.70093 -0.246772 -3.45857 -1.97455 -0.398655 -3.44439 -24.4741 0.803456 -3.37308 -4.46142 0.803463 -3.37308 90.8787 -24.0119 -107.369 32.1523 -27.8154 2.49855 -28.7569 3.37521 -86.1908 -17.2585 2.55298 -32.8007 -88.3384 -31.3834 76.8891 15.3105 26.0596 -20.6277 21.0334 -16.1645 -96.0513 11.6917 -2.63069 -24.7837 16.624 4.69828 -6.88539 -9.13765 5.95649 9.22131 
-107.832 96.043 -114.911 -69.2844 -71.8989 -62.9745 -162.432 27.2724 91.7354 -49.9535 -1.03968 -7.61424 78.1993 13.0508 1.45134 30.8809 1.09524 0.253307 175.095 28.9999 78.6951 -55.2811 -14.4933 -4.20389 67.6292 -5.36948 -5.0006 18.8956 2.37011 4.72759 0.354066 8.44582 -91.4773 9.97391 0.0342628 -2.93527 -1.70034 -0.0948975 -2.93393 -24.2108 0.914504 -2.7895 -4.19814 0.914499 -2.7895 89.6166 -24.2541 -109.993 27.9704 -33.2185 0.789555 -27.4705 6.87916 -86.2023 -17.0636 2.79582 -33.0027 -87.0813 -34.343 80.0014 9.26308 28.1371 -6.49543 21.7961 -17.4346 -98.6916 12.5947 -2.84454 -25.1369 13.2844 13.1507 2.18071 -9.78463 11.8226 6.88875 
-100.801 98.3838 -110.291 -70.3286 -65.1651 -67.4331 -158.978 25.6005 89.3078 -44.2867 7.9625 -13.207 62.4131 1.6103 0.889049 39.3385 5.92198 -4.57376 174.395 37.0976 83.3473 -56.0408 -14.5454 -1.47978 68.6808 -5.34237 -2.49838 22.4024 1.10874 5.79561 0.497213 8.43228 -90.9906 10.0114 0.540294 -2.01068 -1.661 0.451291 -2.03251 -24.1871 1.11952 -1.75547 -4.17449 1.11953 -1.75549 87.6392 -26.6482 -112.983 21.9381 -36.4425 -1.87129 -31.4846 6.91068 -83.9903 -20.7219 3.27569 -32.1683 -86.9299 -38.2208 81.1384 2.75136 29.2265 5.07369 24.586 -18.5734 -99.7764 11.991 -2.49015 -23.2188 13.1773 19.1757 9.15212 -9.91483 16.1 5.55548 
-94.0676 98.5173 -105.667 -67.1149 -63.4971 -67.533 -159.444 27.4176 87.2974 -46.4496 16.7618 -12.5957 57.1092 -2.76533 -5.77029 44.616 8.07749 2.40867 171.078 40.7342 87.078 -53.6838 -19.9774 1.7102 67.2769 -3.91698 0.0601137 29.5635 -0.823376 4.60827 0.53667 8.47006 -90.6167 9.93672 0.789463 -1.28807 -1.73466 0.732024 -1.32156 -24.2684 1.14007 -0.991289 -4.25575 1.14007 -0.991284 85.6688 -27.2432 -116.658 19.7053 -34.5034 -0.536418 -33.8714 5.09035 -84.4392 -23.407 3.5554 -31.6256 -88.265 -40.8607 79.454 -3.8156 27.5917 8.6116 29.6382 -16.3826 -95.5854 12.5535 -2.74179 -24.4069 14.6491 21.5627 11.9057 -9.80757 17.6347 5.24692 
